<?xml version="1.0" encoding="UTF-8" standalone="no"?>
<!DOCTYPE svg PUBLIC "-//W3C//DTD SVG 1.1//EN" "http://www.w3.org/Graphics/SVG/1.1/DTD/svg11.dtd">
<svg width="100%" height="100%" viewBox="0 0 30 30" version="1.1" xmlns="http://www.w3.org/2000/svg" xmlns:xlink="http://www.w3.org/1999/xlink" xml:space="preserve" xmlns:serif="http://www.serif.com/" style="fill-rule:evenodd;clip-rule:evenodd;stroke-linejoin:round;stroke-miterlimit:2;">
    <g transform="matrix(1,0,0,1,-204,0)">
        <g id="In" transform="matrix(1,0,0,1,40,0)">
            <g transform="matrix(1,0,0,1,131,-1)">
                <path d="M50,14L50,11C50,10.47 49.789,9.961 49.414,9.586C49.039,9.211 48.53,9 48,9C47.47,9 46.961,9.211 46.586,9.586C46.211,9.961 46,10.47 46,11C46,12.392 46,14 46,14L43,14C42.47,14 41.961,14.211 41.586,14.586C41.211,14.961 41,15.47 41,16C41,16.53 41.211,17.039 41.586,17.414C41.961,17.789 42.47,18 43,18C44.392,18 46,18 46,18L46,21C46,21.53 46.211,22.039 46.586,22.414C46.961,22.789 47.47,23 48,23C48.53,23 49.039,22.789 49.414,22.414C49.789,22.039 50,21.53 50,21C50,19.608 50,18 50,18L53,18C53.53,18 54.039,17.789 54.414,17.414C54.789,17.039 55,16.53 55,16C55,15.47 54.789,14.961 54.414,14.586C54.039,14.211 53.53,14 53,14C51.608,14 50,14 50,14Z" style="fill:rgb(35,31,32);"/>
            </g>
        </g>
    </g>
</svg>
