<?xml version="1.0" encoding="UTF-8" standalone="no"?>
<!DOCTYPE svg PUBLIC "-//W3C//DTD SVG 1.1//EN" "http://www.w3.org/Graphics/SVG/1.1/DTD/svg11.dtd">
<svg width="100%" height="100%" viewBox="0 0 35 30" version="1.1" xmlns="http://www.w3.org/2000/svg" xmlns:xlink="http://www.w3.org/1999/xlink" xml:space="preserve" xmlns:serif="http://www.serif.com/" style="fill-rule:evenodd;clip-rule:evenodd;stroke-linejoin:round;stroke-miterlimit:2;">
    <g transform="matrix(1,0,0,1,-70,0)">
        <g id="Close" transform="matrix(0.777778,0,0,1,70,0)">
            <rect x="0" y="0" width="45" height="30" style="fill-opacity:0;"/>
            <g transform="matrix(1.28571,0,0,1,-90,0)">
                <path d="M87.924,13.476C87.69,13.71 87.31,13.71 87.076,13.476C86.326,12.726 84.774,11.174 84.024,10.424C83.79,10.19 83.41,10.19 83.175,10.424C83.093,10.507 83.007,10.593 82.924,10.675C82.69,10.91 82.69,11.29 82.924,11.524C83.674,12.274 85.226,13.826 85.976,14.576C86.21,14.81 86.21,15.19 85.976,15.424C85.226,16.174 83.674,17.726 82.924,18.476C82.69,18.71 82.69,19.09 82.924,19.324C83.007,19.407 83.093,19.493 83.175,19.576C83.41,19.81 83.79,19.81 84.024,19.576C84.774,18.825 86.326,17.274 87.076,16.524C87.31,16.29 87.69,16.29 87.924,16.524C88.674,17.274 90.226,18.825 90.976,19.576C91.21,19.81 91.59,19.81 91.825,19.576C91.907,19.493 91.993,19.407 92.076,19.324C92.31,19.09 92.31,18.71 92.076,18.476C91.326,17.726 89.774,16.174 89.024,15.424C88.79,15.19 88.79,14.81 89.024,14.576C89.774,13.826 91.326,12.274 92.076,11.524C92.31,11.29 92.31,10.91 92.076,10.675C91.993,10.593 91.907,10.507 91.825,10.424C91.59,10.19 91.21,10.19 90.976,10.424C90.226,11.174 88.674,12.726 87.924,13.476Z" style="fill:white;"/>
            </g>
        </g>
    </g>
</svg>
