<?xml version="1.0" encoding="UTF-8" standalone="no"?>
<!DOCTYPE svg PUBLIC "-//W3C//DTD SVG 1.1//EN" "http://www.w3.org/Graphics/SVG/1.1/DTD/svg11.dtd">
<svg width="100%" height="100%" viewBox="0 0 35 30" version="1.1" xmlns="http://www.w3.org/2000/svg" xmlns:xlink="http://www.w3.org/1999/xlink" xml:space="preserve" xmlns:serif="http://www.serif.com/" style="fill-rule:evenodd;clip-rule:evenodd;stroke-linejoin:round;stroke-miterlimit:2;">
    <g transform="matrix(1,0,0,1,-35,0)">
        <g id="Maximize" transform="matrix(0.777778,0,0,1,35,0)">
            <rect x="0" y="0" width="45" height="30" style="fill-opacity:0;"/>
            <g transform="matrix(1.28571,0,0,1,-45,0)">
                <path d="M57.5,10.6C57.5,10.269 57.231,10 56.9,10L48.1,10C47.769,10 47.5,10.269 47.5,10.6L47.5,19.4C47.5,19.731 47.769,20 48.1,20L56.9,20C57.231,20 57.5,19.731 57.5,19.4L57.5,10.6ZM56,12.1C56,11.769 55.731,11.5 55.4,11.5L49.6,11.5C49.269,11.5 49,11.769 49,12.1L49,17.9C49,18.231 49.269,18.5 49.6,18.5L55.4,18.5C55.731,18.5 56,18.231 56,17.9L56,12.1Z" style="fill:white;"/>
            </g>
        </g>
    </g>
</svg>
