<?xml version="1.0" encoding="UTF-8" standalone="no"?>
<!DOCTYPE svg PUBLIC "-//W3C//DTD SVG 1.1//EN" "http://www.w3.org/Graphics/SVG/1.1/DTD/svg11.dtd">
<svg width="100%" height="100%" viewBox="0 0 35 30" version="1.1" xmlns="http://www.w3.org/2000/svg" xmlns:xlink="http://www.w3.org/1999/xlink" xml:space="preserve" xmlns:serif="http://www.serif.com/" style="fill-rule:evenodd;clip-rule:evenodd;stroke-linejoin:round;stroke-miterlimit:2;">
    <g id="Minimize" transform="matrix(0.777778,0,0,1,0,0)">
        <rect x="0" y="0" width="45" height="30" style="fill-opacity:0;"/>
        <g transform="matrix(0.774454,0,0,0.120471,-17.8755,16.545)">
            <path d="M60.435,17.058C60.435,14.307 59.989,12.077 59.439,12.077C56.483,12.077 47.785,12.077 44.829,12.077C44.279,12.077 43.833,14.307 43.833,17.058C43.833,19.158 43.833,21.598 43.833,23.699C43.833,26.449 44.279,28.679 44.829,28.679C47.785,28.679 56.483,28.679 59.439,28.679C59.989,28.679 60.435,26.449 60.435,23.699C60.435,21.598 60.435,19.158 60.435,17.058Z" style="fill:white;"/>
        </g>
    </g>
</svg>
